Coordinates
version=1
nRows=17
nColumns=33
inDegrees=yes

Units are S.I. units (second, meters, Newtons, ...)
Angles are in degrees.

endheader
time	ground_thorax_rot_x	ground_thorax_rot_y	ground_thorax_rot_z	ground_thorax_tx	ground_thorax_ty	ground_thorax_tz	clav_prot_r	clav_elev_r	scapula_abduction_r	scapula_elevation_r	scapula_upward_rot_r	scapula_winging_r	shoulder_elv_r	plane_of_elev_r	axial_rot_r	elbow_flexion_r	pro_sup_r	wrist_flex_r	wrist_dev_r	clav_prot_l	clav_elev_l	scapula_abduction_l	scapula_elevation_l	scapula_upward_rot_l	scapula_winging_l	shoulder_elv_l	plane_of_elev_l	axial_rot_l	elbow_flexion_l	pro_sup_l	wrist_flex_l	wrist_dev_l
      3.51000000	     38.91061284	     13.73573153	     17.35568403	   -155.27922745	    797.85626709	      4.53575602	     12.71495765	     40.99703028	     40.08400399	     45.00000000	    -24.65463179	   2072.53485432	     62.03704793	     31.01016935	     49.04397685	   2171.41729594	     10.47126931	     18.16094522	     11.74207534	      7.91549433	    -45.00000000	    -38.99963728	     45.00000000	    -45.00000000	     89.82594531	    265.45977482	    134.57802720	   -179.99999979	   1089.86447500	     30.50673992	     10.47707171	    -21.03734116
      3.52000000	     39.21956661	     13.24314048	     17.12322585	   -151.32278019	    795.34778694	      4.63799994	     14.44698505	     42.11393231	     41.03270244	     44.96916707	    -24.75108202	   2071.48659658	     60.94930971	     31.97343088	     49.39427977	   2170.93976022	     10.83654257	     17.96200209	     12.15259167	      7.34517391	    -45.00000000	    -37.74431410	     45.00000000	    -45.00000000	     88.77664490	    265.36449698	    134.55460329	   -179.99999979	   1089.60817358	     30.83512417	     10.22624179	    -20.86597424
      3.53000000	     39.05350057	     13.42937376	     17.37235866	   -147.36653940	    792.84867103	      4.75078200	     14.41508796	     41.92935382	     41.09411255	     44.64280233	    -24.41645365	   2071.40892153	     60.63677521	     31.84792042	     49.95279937	   2170.76689572	     11.20587225	     17.84227295	     12.40339789	      7.28171882	    -45.00000000	    -37.78108652	     45.00000000	    -45.00000000	     88.40606036	    265.15742132	    134.50479092	   -179.99999979	   1089.35933035	     31.24558556	     10.30821886	    -20.75765821
      3.54000000	     38.92840698	     13.36041477	     17.45866630	   -143.41686955	    790.37656326	      4.87245444	     14.91484338	     41.79194085	     41.59103801	     44.17889003	    -23.71141868	   2071.20397055	     60.35753070	     31.35712392	     50.93502020	   2170.70330376	     11.69744618	     17.77420096	     12.67755859	      6.75213263	    -45.00000000	    -37.67763281	     45.00000000	    -45.00000000	     87.91433549	    265.09299858	    134.56727345	   -179.99999979	   1089.24412100	     31.59419723	     10.30794265	    -20.64816435
      3.55000000	     38.48485148	     13.96621499	     18.25177783	   -139.47357822	    787.95149284	      5.00039344	     13.43170450	     41.61660811	     41.20003969	     43.80047910	    -23.98418723	   2071.74394970	     60.50990706	     31.01586049	     51.02032681	   2170.62856667	     11.87660292	     17.67643075	     12.36512040	      7.62714219	    -45.00000000	    -38.19497129	     45.00000000	    -45.00000000	     88.24016421	    264.68212709	    134.42706887	   -179.99999979	   1088.96127432	     31.97840022	     10.74586666	    -20.63467229
      3.56000000	     38.64936355	     13.44324293	     17.68936382	   -135.54279649	    785.59400147	      5.13278439	     14.78035603	     41.49001888	     42.05977663	     43.33629382	    -22.94163679	   2070.78859735	     59.82019662	     31.10551337	     52.39831107	   2170.34422439	     12.48918147	     17.54970909	     12.93568442	      6.68361903	    -45.00000000	    -37.82535560	     45.00000000	    -45.00000000	     87.29380838	    264.77325065	    134.40408480	   -179.99999979	   1088.86233732	     32.28770871	     10.53033919	    -20.50752607
      3.57000000	     38.19936102	     13.90639923	     18.39334070	   -131.62730266	    783.33063953	      5.26404173	     13.47311751	     41.31897476	     41.79844617	     42.85261270	    -23.00183541	   2071.19554252	     59.89600190	     30.68372768	     52.64574376	   2170.30876973	     12.76319336	     17.48257079	     12.63098337	      7.43572932	    -45.00000000	    -38.21958589	     45.00000000	    -45.00000000	     87.54115595	    264.43903635	    134.30580286	   -179.99999979	   1088.53639354	     32.61387135	     10.88318114	    -20.47373425
      3.58000000	     38.30443412	     13.57808089	     18.02406669	   -127.73418202	    781.18214999	      5.39221792	     14.52795730	     41.07366691	     42.35396908	     42.50249463	    -22.21466617	   2070.55270986	     59.36051903	     30.79350886	     53.87649903	   2170.03609197	     13.40007883	     17.37401464	     13.08546778	      6.70875615	    -45.00000000	    -38.02229138	     45.00000000	    -45.00000000	     86.74419629	    264.47079037	    134.31871854	   -179.99999979	   1088.34945492	     32.85781411	     10.79071739	    -20.38492677
      3.59000000	     38.19667330	     13.55158585	     18.08706371	   -123.87608279	    779.18632651	      5.50130296	     14.60717761	     40.86924857	     42.66897921	     42.02719318	    -21.58278921	   2070.26539099	     59.10297714	     30.55800453	     54.80597856	   2169.87161165	     14.04751195	     17.31842142	     13.21269261	      6.58633880	    -45.00000000	    -38.02223070	     45.00000000	    -45.00000000	     86.35667857	    264.39598005	    134.32655923	   -179.99999979	   1088.05452087	     33.02681383	     10.84550090	    -20.31767603
      3.60000000	     37.83488720	     13.94395890	     18.61676023	   -120.06033933	    777.34144046	      5.61406317	     13.82265447	     40.79360559	     42.58706708	     41.55554419	    -21.65243750	   2070.37335907	     59.09949265	     30.28361990	     55.34224323	   2169.75062229	     14.52912323	     17.25584086	     12.87625613	      6.95141957	    -45.00000000	    -38.28080822	     45.00000000	    -45.00000000	     86.47039226	    264.20173474	    134.18577056	   -179.99999979	   1087.71620196	     33.20197922	     11.12396007	    -20.30370270
      3.61000000	     37.61519303	     14.10070329	     18.91508383	   -116.31496964	    775.72741852	      5.66767472	     13.70163883	     40.65733607	     42.61597505	     41.17762864	    -21.57142538	   2070.63887191	     59.09513010	     29.93588631	     55.88726596	   2169.56456677	     15.11864465	     17.19278335	     12.82532884	      6.83484730	    -45.00000000	    -38.48439027	     45.00000000	    -45.00000000	     86.25402570	    264.06057152	    134.19685995	   -179.99999979	   1087.27842920	     33.34341465	     11.30845490	    -20.30449229
      3.62000000	     38.06384504	     13.46923499	     18.23189856	   -112.66555177	    774.41993362	      5.59909240	     14.80122904	     40.40515827	     43.72029503	     40.96654268	    -20.20095934	   2069.66984819	     58.54456203	     29.74096779	     57.20587009	   2169.35755614	     16.23219505	     17.20392964	     13.31782898	      6.08231222	    -45.00000000	    -38.14911700	     45.00000000	    -45.00000000	     85.43487872	    264.29285164	    134.17557431	   -179.99999979	   1087.21347717	     33.08729326	     11.17301248	    -20.37475056
      3.63000000	     37.69687120	     14.14690657	     19.08568615	   -109.14794761	    773.49543610	      5.34464589	     13.79025012	     40.52848677	     43.43222200	     40.63857869	    -20.99771770	   2069.92408773	     58.64869328	     29.69414085	     57.42529733	   2169.26882246	     16.85485145	     17.15378539	     12.70121958	      6.72572116	    -45.00000000	    -38.39696657	     45.00000000	    -45.00000000	     85.75415688	    264.12665797	    134.07902168	   -179.99999979	   1086.61319280	     32.76656941	     11.74356070	    -20.61193888
      3.64000000	     40.70153451	     12.68771924	     13.99459013	   -112.08668657	    780.06500803	     16.76605793	     13.86250106	     41.01281321	     45.00000000	     40.12952738	    -15.34958487	   2067.86723113	     57.89394513	     29.00696463	     57.78863197	   2168.77857778	     17.81538898	     16.85484532	     13.08471003	      6.88475099	    -45.00000000	    -39.36038348	     45.00000000	    -44.67141595	     82.96666211	    263.46161061	    133.91903317	   -179.99999979	   1089.38622514	     35.42350015	     10.18207999	    -19.42190376
      3.65000000	     40.37343144	     13.14986621	     14.86814334	   -108.78604413	    779.23472008	     16.98191385	     14.00048213	     41.01761505	     45.00000000	     39.70944859	    -15.79051292	   2067.96403355	     57.92811891	     28.90838133	     59.27755673	   2168.79818894	     18.67549113	     16.88663131	     12.49769113	      6.34634849	    -45.00000000	    -39.06757165	     45.00000000	    -45.00000000	     82.88003127	    263.40694853	    134.13392472	   -179.99999979	   1089.19672127	     36.80644370	     10.16265665	    -19.61540962
      3.66000000	     40.57648514	     12.91641397	     14.39155116	   -105.62495731	    778.58653163	     17.20322862	     14.40931999	     40.84033629	     45.00000000	     39.56923056	    -14.44211108	   2067.75232306	     57.69354926	     28.80358193	     60.14873069	   2168.61499655	     19.79377964	     16.92127922	     12.72747691	      5.84671927	    -45.00000000	    -39.16408993	     45.00000000	    -45.00000000	     82.21772322	    263.56706961	    134.05300787	   -179.99999979	   1089.27093321	     38.17300436	      9.70818037	    -19.65531975
      3.67000000	     40.43769380	     13.16569954	     14.69050430	   -102.62471564	    778.10622789	     17.42998780	     13.97110376	     40.68083585	     45.00000000	     39.32315932	    -14.72532437	   2067.72862155	     57.65148392	     28.97273497	     60.09159736	   2168.49075909	     20.62063908	     16.86683916	     12.37547939	      6.30635334	    -45.00000000	    -39.23519824	     45.00000000	    -45.00000000	     82.15631210	    263.47531161	    133.94078630	   -179.99999979	   1089.14298413	     39.10336166	      9.63563980	    -19.75266641
